<?xml version="1.0" standalone="no"?>
<!DOCTYPE svg PUBLIC "-//W3C//DTD SVG 20010904//EN"
 "http://www.w3.org/TR/2001/REC-SVG-20010904/DTD/svg10.dtd">
<svg version="1.0"
    xmlns="http://www.w3.org/2000/svg" width="541.000000pt" height="241.000000pt" viewBox="0 0 541.000000 241.000000" preserveAspectRatio="xMidYMid meet">

    <g transform="translate(0.000000,241.000000) scale(0.100000,-0.100000)" fill="#000000" stroke="none">
        <path d="M1376 1663 c10 -18 22 -33 26 -33 15 0 8 17 -19 41 l-26 24 19 -32z"/>
        <path d="M1913 1408 c-13 -6 -23 -15 -23 -20 0 -15 27 -8 45 12 20 22 12 25
-22 8z"/>
        <path d="M1352 1120 c-29 -4 -55 -10 -58 -13 -3 -2 57 -7 133 -9 76 -3 150
-10 166 -16 21 -9 27 -9 27 2 0 28 -31 39 -123 42 -50 1 -116 -1 -145 -6z"/>
    </g>
</svg>
